<?xml version="1.0" encoding="us-ascii" standalone="no"?><svg xmlns="http://www.w3.org/2000/svg" xmlns:xlink="http://www.w3.org/1999/xlink" contentStyleType="text/css" height="1275px" preserveAspectRatio="none" style="width:2144px;height:1275px;background:#FFFFFF;" version="1.1" viewBox="0 0 2144 1275" width="2144px" zoomAndPan="magnify"><defs/><g><!--class Main--><g id="elem_Main"><rect codeLine="1" fill="#F1F1F1" height="162.0781" id="Main" rx="2.5" ry="2.5" style="stroke:#181818;stroke-width:0.5;" width="159" x="1006" y="7"/><ellipse cx="1064.75" cy="23" fill="#ADD1B2" rx="11" ry="11" style="stroke:#181818;stroke-width:1.0;"/><path d="M1067.0938,18.6719 C1066.1563,18.2344 1065.5625,18.0938 1064.6875,18.0938 C1062.0625,18.0938 1060.0625,20.1719 1060.0625,22.8906 L1060.0625,24.0156 C1060.0625,26.5938 1062.1719,28.4844 1065.0625,28.4844 C1066.2813,28.4844 1067.4375,28.1875 1068.1875,27.6406 C1068.7656,27.2344 1069.0938,26.7813 1069.0938,26.3906 C1069.0938,25.9375 1068.7031,25.5469 1068.2344,25.5469 C1068.0156,25.5469 1067.8125,25.625 1067.625,25.8125 C1067.1719,26.2969 1067.1719,26.2969 1066.9844,26.3906 C1066.5625,26.6563 1065.875,26.7813 1065.1094,26.7813 C1063.0625,26.7813 1061.7656,25.6875 1061.7656,23.9844 L1061.7656,22.8906 C1061.7656,21.1094 1063.0156,19.7969 1064.75,19.7969 C1065.3281,19.7969 1065.9375,19.9531 1066.4063,20.2031 C1066.8906,20.4844 1067.0625,20.7031 1067.1563,21.1094 C1067.2188,21.5156 1067.25,21.6406 1067.3906,21.7656 C1067.5313,21.9063 1067.7656,22.0156 1067.9844,22.0156 C1068.25,22.0156 1068.5156,21.875 1068.6875,21.6563 C1068.7969,21.5 1068.8281,21.3125 1068.8281,20.8906 L1068.8281,19.4688 C1068.8281,19.0313 1068.8125,18.9063 1068.7188,18.75 C1068.5625,18.4844 1068.2813,18.3438 1067.9844,18.3438 C1067.6875,18.3438 1067.4844,18.4375 1067.2656,18.75 L1067.0938,18.6719 Z " fill="#000000"/><text fill="#000000" font-family="sans-serif" font-size="14" lengthAdjust="spacing" textLength="33" x="1085.25" y="27.8467">Main</text><line style="stroke:#181818;stroke-width:0.5;" x1="1007" x2="1164" y1="39" y2="39"/><rect fill="none" height="6" style="stroke:#C82930;stroke-width:1.0;" width="6" x="1014" y="49.6484"/><text fill="#000000" font-family="sans-serif" font-size="14" lengthAdjust="spacing" textLength="133" x="1026" y="55.9951">manager: Manager</text><line style="stroke:#181818;stroke-width:0.5;" x1="1007" x2="1164" y1="63.2969" y2="63.2969"/><ellipse cx="1017" cy="76.9453" fill="#84BE84" rx="3" ry="3" style="stroke:#038048;stroke-width:1.0;"/><text fill="#000000" font-family="sans-serif" font-size="14" lengthAdjust="spacing" textLength="69" x="1026" y="80.292">settings()</text><ellipse cx="1017" cy="93.2422" fill="#84BE84" rx="3" ry="3" style="stroke:#038048;stroke-width:1.0;"/><text fill="#000000" font-family="sans-serif" font-size="14" lengthAdjust="spacing" textLength="51" x="1026" y="96.5889">setup()</text><ellipse cx="1017" cy="109.5391" fill="#84BE84" rx="3" ry="3" style="stroke:#038048;stroke-width:1.0;"/><text fill="#000000" font-family="sans-serif" font-size="14" lengthAdjust="spacing" textLength="44" x="1026" y="112.8857">draw()</text><ellipse cx="1017" cy="125.8359" fill="#84BE84" rx="3" ry="3" style="stroke:#038048;stroke-width:1.0;"/><text fill="#000000" font-family="sans-serif" font-size="14" lengthAdjust="spacing" textLength="113" x="1026" y="129.1826">mousePressed()</text><ellipse cx="1017" cy="142.1328" fill="#84BE84" rx="3" ry="3" style="stroke:#038048;stroke-width:1.0;"/><text fill="#000000" font-family="sans-serif" font-size="14" lengthAdjust="spacing" textLength="118" x="1026" y="145.4795">mouseDragged()</text><ellipse cx="1017" cy="158.4297" fill="#84BE84" rx="3" ry="3" style="stroke:#038048;stroke-width:1.0;"/><text fill="#000000" font-family="sans-serif" font-size="14" lengthAdjust="spacing" textLength="133" x="1026" y="161.7764">main(String[] args)</text></g><!--class Manager--><g id="elem_Manager"><rect codeLine="11" fill="#F1F1F1" height="292.4531" id="Manager" rx="2.5" ry="2.5" style="stroke:#181818;stroke-width:0.5;" width="209" x="981" y="229"/><ellipse cx="1050.75" cy="245" fill="#ADD1B2" rx="11" ry="11" style="stroke:#181818;stroke-width:1.0;"/><path d="M1053.0938,240.6719 C1052.1563,240.2344 1051.5625,240.0938 1050.6875,240.0938 C1048.0625,240.0938 1046.0625,242.1719 1046.0625,244.8906 L1046.0625,246.0156 C1046.0625,248.5938 1048.1719,250.4844 1051.0625,250.4844 C1052.2813,250.4844 1053.4375,250.1875 1054.1875,249.6406 C1054.7656,249.2344 1055.0938,248.7813 1055.0938,248.3906 C1055.0938,247.9375 1054.7031,247.5469 1054.2344,247.5469 C1054.0156,247.5469 1053.8125,247.625 1053.625,247.8125 C1053.1719,248.2969 1053.1719,248.2969 1052.9844,248.3906 C1052.5625,248.6563 1051.875,248.7813 1051.1094,248.7813 C1049.0625,248.7813 1047.7656,247.6875 1047.7656,245.9844 L1047.7656,244.8906 C1047.7656,243.1094 1049.0156,241.7969 1050.75,241.7969 C1051.3281,241.7969 1051.9375,241.9531 1052.4063,242.2031 C1052.8906,242.4844 1053.0625,242.7031 1053.1563,243.1094 C1053.2188,243.5156 1053.25,243.6406 1053.3906,243.7656 C1053.5313,243.9063 1053.7656,244.0156 1053.9844,244.0156 C1054.25,244.0156 1054.5156,243.875 1054.6875,243.6563 C1054.7969,243.5 1054.8281,243.3125 1054.8281,242.8906 L1054.8281,241.4688 C1054.8281,241.0313 1054.8125,240.9063 1054.7188,240.75 C1054.5625,240.4844 1054.2813,240.3438 1053.9844,240.3438 C1053.6875,240.3438 1053.4844,240.4375 1053.2656,240.75 L1053.0938,240.6719 Z " fill="#000000"/><text fill="#000000" font-family="sans-serif" font-size="14" lengthAdjust="spacing" textLength="61" x="1071.25" y="249.8467">Manager</text><line style="stroke:#181818;stroke-width:0.5;" x1="982" x2="1189" y1="261" y2="261"/><rect fill="none" height="6" style="stroke:#C82930;stroke-width:1.0;" width="6" x="989" y="271.6484"/><text fill="#000000" font-family="sans-serif" font-size="14" lengthAdjust="spacing" textLength="117" x="1001" y="277.9951">parent: PApplet</text><rect fill="none" height="6" style="stroke:#C82930;stroke-width:1.0;" width="6" x="989" y="287.9453"/><text fill="#000000" font-family="sans-serif" font-size="14" lengthAdjust="spacing" textLength="103" x="1001" y="294.292">archer: Archer</text><rect fill="none" height="6" style="stroke:#C82930;stroke-width:1.0;" width="6" x="989" y="304.2422"/><text fill="#000000" font-family="sans-serif" font-size="14" lengthAdjust="spacing" textLength="98" x="1001" y="310.5889">levels: Level[]</text><rect fill="none" height="6" style="stroke:#C82930;stroke-width:1.0;" width="6" x="989" y="320.5391"/><text fill="#000000" font-family="sans-serif" font-size="14" lengthAdjust="spacing" textLength="159" x="1001" y="326.8857">currentLevelIndex: int</text><rect fill="none" height="6" style="stroke:#C82930;stroke-width:1.0;" width="6" x="989" y="336.8359"/><text fill="#000000" font-family="sans-serif" font-size="14" lengthAdjust="spacing" textLength="68" x="1001" y="343.1826">score: int</text><rect fill="none" height="6" style="stroke:#C82930;stroke-width:1.0;" width="6" x="989" y="353.1328"/><text fill="#000000" font-family="sans-serif" font-size="14" lengthAdjust="spacing" textLength="112" x="1001" y="359.4795">arrowsFired: int</text><line style="stroke:#181818;stroke-width:0.5;" x1="982" x2="1189" y1="366.7813" y2="366.7813"/><ellipse cx="992" cy="380.4297" fill="#84BE84" rx="3" ry="3" style="stroke:#038048;stroke-width:1.0;"/><text fill="#000000" font-family="sans-serif" font-size="14" lengthAdjust="spacing" textLength="183" x="1001" y="383.7764">Manager(PApplet parent)</text><ellipse cx="992" cy="396.7266" fill="#84BE84" rx="3" ry="3" style="stroke:#038048;stroke-width:1.0;"/><text fill="#000000" font-family="sans-serif" font-size="14" lengthAdjust="spacing" textLength="61" x="1001" y="400.0732">update()</text><ellipse cx="992" cy="413.0234" fill="#84BE84" rx="3" ry="3" style="stroke:#038048;stroke-width:1.0;"/><text fill="#000000" font-family="sans-serif" font-size="14" lengthAdjust="spacing" textLength="60" x="1001" y="416.3701">display()</text><rect fill="#F24D5C" height="6" style="stroke:#C82930;stroke-width:1.0;" width="6" x="989" y="426.3203"/><text fill="#000000" font-family="sans-serif" font-size="14" lengthAdjust="spacing" textLength="176" x="1001" y="432.667">checkLevelCompletion()</text><rect fill="#F24D5C" height="6" style="stroke:#C82930;stroke-width:1.0;" width="6" x="989" y="442.6172"/><text fill="#000000" font-family="sans-serif" font-size="14" lengthAdjust="spacing" textLength="84" x="1001" y="448.9639">gameOver()</text><rect fill="#F24D5C" height="6" style="stroke:#C82930;stroke-width:1.0;" width="6" x="989" y="458.9141"/><text fill="#000000" font-family="sans-serif" font-size="14" lengthAdjust="spacing" textLength="77" x="1001" y="465.2607">fireArrow()</text><rect fill="#F24D5C" height="6" style="stroke:#C82930;stroke-width:1.0;" width="6" x="989" y="475.2109"/><text fill="#000000" font-family="sans-serif" font-size="14" lengthAdjust="spacing" textLength="101" x="1001" y="481.5576">displayScore()</text><ellipse cx="992" cy="494.5078" fill="#84BE84" rx="3" ry="3" style="stroke:#038048;stroke-width:1.0;"/><text fill="#000000" font-family="sans-serif" font-size="14" lengthAdjust="spacing" textLength="113" x="1001" y="497.8545">mousePressed()</text><ellipse cx="992" cy="510.8047" fill="#84BE84" rx="3" ry="3" style="stroke:#038048;stroke-width:1.0;"/><text fill="#000000" font-family="sans-serif" font-size="14" lengthAdjust="spacing" textLength="118" x="1001" y="514.1514">mouseDragged()</text></g><!--class Level--><g id="elem_Level"><rect codeLine="29" fill="#F1F1F1" height="243.5625" id="Level" rx="2.5" ry="2.5" style="stroke:#181818;stroke-width:0.5;" width="404" x="689.5" y="581"/><ellipse cx="868.25" cy="597" fill="#A9DCDF" rx="11" ry="11" style="stroke:#181818;stroke-width:1.0;"/><path d="M870.3281,598.8125 L870.7188,599.7969 L870.3281,599.7969 C869.875,599.7969 869.7656,599.8125 869.6094,599.9219 C869.3594,600.0781 869.2031,600.3594 869.2031,600.6563 C869.2031,600.9219 869.3438,601.1719 869.5625,601.3281 C869.7031,601.4531 869.9063,601.5 870.3281,601.5 L872.6875,601.5 C873.0469,601.5 873.2656,601.4688 873.4063,601.375 C873.6563,601.2344 873.8125,600.9375 873.8125,600.6563 C873.8125,600.375 873.6719,600.125 873.4531,599.9688 C873.2813,599.8281 873.125,599.7969 872.6563,599.7969 L869.2656,591.5938 L865.5938,591.5938 C865.1406,591.5938 865.0156,591.6094 864.8594,591.7031 C864.6094,591.875 864.4531,592.1563 864.4531,592.4375 C864.4531,592.7188 864.5938,592.9688 864.8125,593.1406 C864.9844,593.25 865.1563,593.2813 865.5938,593.2813 L866.6719,593.2813 L864.0313,599.7969 C863.6094,599.7969 863.4531,599.8125 863.2969,599.9219 C863.0469,600.0781 862.8906,600.3594 862.8906,600.6563 C862.8906,601.2188 863.2656,601.5 864.0156,601.5 L866.2813,601.5 C866.6406,601.5 866.8594,601.4688 866.9844,601.375 C867.25,601.2344 867.3906,600.9375 867.3906,600.6563 C867.3906,600.375 867.2656,600.125 867.0469,599.9531 C866.875,599.8281 866.7344,599.7969 866.2813,599.7969 L865.8906,599.7969 L866.2813,598.8125 L870.3281,598.8125 Z M869.625,597.1094 L866.9531,597.1094 L868.2969,593.8438 L869.625,597.1094 Z " fill="#000000"/><text fill="#000000" font-family="sans-serif" font-size="14" font-style="italic" lengthAdjust="spacing" textLength="38" x="888.75" y="601.8467">Level</text><line style="stroke:#181818;stroke-width:0.5;" x1="690.5" x2="1092.5" y1="613" y2="613"/><rect fill="none" height="6" style="stroke:#C82930;stroke-width:1.0;" width="6" x="697.5" y="623.6484"/><text fill="#000000" font-family="sans-serif" font-size="14" lengthAdjust="spacing" textLength="117" x="709.5" y="629.9951">parent: PApplet</text><rect fill="none" height="6" style="stroke:#C82930;stroke-width:1.0;" width="6" x="697.5" y="639.9453"/><text fill="#000000" font-family="sans-serif" font-size="14" lengthAdjust="spacing" textLength="109" x="709.5" y="646.292">numArrows: int</text><rect fill="none" height="6" style="stroke:#C82930;stroke-width:1.0;" width="6" x="697.5" y="656.2422"/><text fill="#000000" font-family="sans-serif" font-size="14" lengthAdjust="spacing" textLength="208" x="709.5" y="662.5889">balloons: ArrayList&lt;Balloon&gt;</text><rect fill="none" height="6" style="stroke:#C82930;stroke-width:1.0;" width="6" x="697.5" y="672.5391"/><text fill="#000000" font-family="sans-serif" font-size="14" lengthAdjust="spacing" textLength="184" x="709.5" y="678.8857">arrows: ArrayList&lt;Arrow&gt;</text><rect fill="none" height="6" style="stroke:#C82930;stroke-width:1.0;" width="6" x="697.5" y="688.8359"/><text fill="#000000" font-family="sans-serif" font-size="14" lengthAdjust="spacing" textLength="103" x="709.5" y="695.1826">archer: Archer</text><line style="stroke:#181818;stroke-width:0.5;" x1="690.5" x2="1092.5" y1="702.4844" y2="702.4844"/><ellipse cx="700.5" cy="716.1328" fill="#84BE84" rx="3" ry="3" style="stroke:#038048;stroke-width:1.0;"/><text fill="#000000" font-family="sans-serif" font-size="14" lengthAdjust="spacing" textLength="378" x="709.5" y="719.4795">Level(PApplet parent, int numArrows, Archer archer)</text><ellipse cx="700.5" cy="732.4297" fill="#84BE84" rx="3" ry="3" style="stroke:#038048;stroke-width:1.0;"/><text fill="#000000" font-family="sans-serif" font-size="14" lengthAdjust="spacing" textLength="61" x="709.5" y="735.7764">update()</text><ellipse cx="700.5" cy="748.7266" fill="#84BE84" rx="3" ry="3" style="stroke:#038048;stroke-width:1.0;"/><text fill="#000000" font-family="sans-serif" font-size="14" lengthAdjust="spacing" textLength="60" x="709.5" y="752.0732">display()</text><ellipse cx="700.5" cy="765.0234" fill="#84BE84" rx="3" ry="3" style="stroke:#038048;stroke-width:1.0;"/><text fill="#000000" font-family="sans-serif" font-size="14" lengthAdjust="spacing" textLength="243" x="709.5" y="768.3701">getBalloons(): ArrayList&lt;Balloon&gt;</text><ellipse cx="700.5" cy="781.3203" fill="#84BE84" rx="3" ry="3" style="stroke:#038048;stroke-width:1.0;"/><text fill="#000000" font-family="sans-serif" font-size="14" lengthAdjust="spacing" textLength="221" x="709.5" y="784.667">getArrows(): ArrayList&lt;Arrow&gt;</text><ellipse cx="700.5" cy="797.6172" fill="#84BE84" rx="3" ry="3" style="stroke:#038048;stroke-width:1.0;"/><text fill="#000000" font-family="sans-serif" font-size="14" lengthAdjust="spacing" textLength="169" x="709.5" y="800.9639">isCompleted(): boolean</text><ellipse cx="700.5" cy="813.9141" fill="#84BE84" rx="3" ry="3" style="stroke:#038048;stroke-width:1.0;"/><text fill="#000000" font-family="sans-serif" font-size="14" lengthAdjust="spacing" textLength="77" x="709.5" y="817.2607">fireArrow()</text></g><!--class LevelOne--><g id="elem_LevelOne"><rect codeLine="44" fill="#F1F1F1" height="178.375" id="LevelOne" rx="2.5" ry="2.5" style="stroke:#181818;stroke-width:0.5;" width="433" x="7" y="909.5"/><ellipse cx="185.75" cy="925.5" fill="#ADD1B2" rx="11" ry="11" style="stroke:#181818;stroke-width:1.0;"/><path d="M188.0938,921.1719 C187.1563,920.7344 186.5625,920.5938 185.6875,920.5938 C183.0625,920.5938 181.0625,922.6719 181.0625,925.3906 L181.0625,926.5156 C181.0625,929.0938 183.1719,930.9844 186.0625,930.9844 C187.2813,930.9844 188.4375,930.6875 189.1875,930.1406 C189.7656,929.7344 190.0938,929.2813 190.0938,928.8906 C190.0938,928.4375 189.7031,928.0469 189.2344,928.0469 C189.0156,928.0469 188.8125,928.125 188.625,928.3125 C188.1719,928.7969 188.1719,928.7969 187.9844,928.8906 C187.5625,929.1563 186.875,929.2813 186.1094,929.2813 C184.0625,929.2813 182.7656,928.1875 182.7656,926.4844 L182.7656,925.3906 C182.7656,923.6094 184.0156,922.2969 185.75,922.2969 C186.3281,922.2969 186.9375,922.4531 187.4063,922.7031 C187.8906,922.9844 188.0625,923.2031 188.1563,923.6094 C188.2188,924.0156 188.25,924.1406 188.3906,924.2656 C188.5313,924.4063 188.7656,924.5156 188.9844,924.5156 C189.25,924.5156 189.5156,924.375 189.6875,924.1563 C189.7969,924 189.8281,923.8125 189.8281,923.3906 L189.8281,921.9688 C189.8281,921.5313 189.8125,921.4063 189.7188,921.25 C189.5625,920.9844 189.2813,920.8438 188.9844,920.8438 C188.6875,920.8438 188.4844,920.9375 188.2656,921.25 L188.0938,921.1719 Z " fill="#000000"/><text fill="#000000" font-family="sans-serif" font-size="14" lengthAdjust="spacing" textLength="67" x="206.25" y="930.3467">LevelOne</text><line style="stroke:#181818;stroke-width:0.5;" x1="8" x2="439" y1="941.5" y2="941.5"/><line style="stroke:#181818;stroke-width:0.5;" x1="8" x2="439" y1="949.5" y2="949.5"/><ellipse cx="18" cy="963.1484" fill="#84BE84" rx="3" ry="3" style="stroke:#038048;stroke-width:1.0;"/><text fill="#000000" font-family="sans-serif" font-size="14" lengthAdjust="spacing" textLength="407" x="27" y="966.4951">LevelOne(PApplet parent, int numArrows, Archer archer)</text><ellipse cx="18" cy="979.4453" fill="#84BE84" rx="3" ry="3" style="stroke:#038048;stroke-width:1.0;"/><text fill="#000000" font-family="sans-serif" font-size="14" lengthAdjust="spacing" textLength="117" x="27" y="982.792">createBalloons()</text><ellipse cx="18" cy="995.7422" fill="#84BE84" rx="3" ry="3" style="stroke:#038048;stroke-width:1.0;"/><text fill="#000000" font-family="sans-serif" font-size="14" lengthAdjust="spacing" textLength="106" x="27" y="999.0889">createArrows()</text><ellipse cx="18" cy="1012.0391" fill="#84BE84" rx="3" ry="3" style="stroke:#038048;stroke-width:1.0;"/><text fill="#000000" font-family="sans-serif" font-size="14" lengthAdjust="spacing" textLength="61" x="27" y="1015.3857">update()</text><ellipse cx="18" cy="1028.3359" fill="#84BE84" rx="3" ry="3" style="stroke:#038048;stroke-width:1.0;"/><text fill="#000000" font-family="sans-serif" font-size="14" lengthAdjust="spacing" textLength="60" x="27" y="1031.6826">display()</text><ellipse cx="18" cy="1044.6328" fill="#84BE84" rx="3" ry="3" style="stroke:#038048;stroke-width:1.0;"/><text fill="#000000" font-family="sans-serif" font-size="14" lengthAdjust="spacing" textLength="243" x="27" y="1047.9795">getBalloons(): ArrayList&lt;Balloon&gt;</text><ellipse cx="18" cy="1060.9297" fill="#84BE84" rx="3" ry="3" style="stroke:#038048;stroke-width:1.0;"/><text fill="#000000" font-family="sans-serif" font-size="14" lengthAdjust="spacing" textLength="221" x="27" y="1064.2764">getArrows(): ArrayList&lt;Arrow&gt;</text><ellipse cx="18" cy="1077.2266" fill="#84BE84" rx="3" ry="3" style="stroke:#038048;stroke-width:1.0;"/><text fill="#000000" font-family="sans-serif" font-size="14" lengthAdjust="spacing" textLength="169" x="27" y="1080.5732">isCompleted(): boolean</text></g><!--class LevelTwo--><g id="elem_LevelTwo"><rect codeLine="55" fill="#F1F1F1" height="227.2656" id="LevelTwo" rx="2.5" ry="2.5" style="stroke:#181818;stroke-width:0.5;" width="433" x="475" y="885"/><ellipse cx="653.75" cy="901" fill="#ADD1B2" rx="11" ry="11" style="stroke:#181818;stroke-width:1.0;"/><path d="M656.0938,896.6719 C655.1563,896.2344 654.5625,896.0938 653.6875,896.0938 C651.0625,896.0938 649.0625,898.1719 649.0625,900.8906 L649.0625,902.0156 C649.0625,904.5938 651.1719,906.4844 654.0625,906.4844 C655.2813,906.4844 656.4375,906.1875 657.1875,905.6406 C657.7656,905.2344 658.0938,904.7813 658.0938,904.3906 C658.0938,903.9375 657.7031,903.5469 657.2344,903.5469 C657.0156,903.5469 656.8125,903.625 656.625,903.8125 C656.1719,904.2969 656.1719,904.2969 655.9844,904.3906 C655.5625,904.6563 654.875,904.7813 654.1094,904.7813 C652.0625,904.7813 650.7656,903.6875 650.7656,901.9844 L650.7656,900.8906 C650.7656,899.1094 652.0156,897.7969 653.75,897.7969 C654.3281,897.7969 654.9375,897.9531 655.4063,898.2031 C655.8906,898.4844 656.0625,898.7031 656.1563,899.1094 C656.2188,899.5156 656.25,899.6406 656.3906,899.7656 C656.5313,899.9063 656.7656,900.0156 656.9844,900.0156 C657.25,900.0156 657.5156,899.875 657.6875,899.6563 C657.7969,899.5 657.8281,899.3125 657.8281,898.8906 L657.8281,897.4688 C657.8281,897.0313 657.8125,896.9063 657.7188,896.75 C657.5625,896.4844 657.2813,896.3438 656.9844,896.3438 C656.6875,896.3438 656.4844,896.4375 656.2656,896.75 L656.0938,896.6719 Z " fill="#000000"/><text fill="#000000" font-family="sans-serif" font-size="14" lengthAdjust="spacing" textLength="67" x="674.25" y="905.8467">LevelTwo</text><line style="stroke:#181818;stroke-width:0.5;" x1="476" x2="907" y1="917" y2="917"/><rect fill="none" height="6" style="stroke:#C82930;stroke-width:1.0;" width="6" x="483" y="927.6484"/><text fill="#000000" font-family="sans-serif" font-size="14" lengthAdjust="spacing" textLength="153" x="495" y="933.9951">balloonSpacing: float</text><line style="stroke:#181818;stroke-width:0.5;" x1="476" x2="907" y1="941.2969" y2="941.2969"/><ellipse cx="486" cy="954.9453" fill="#84BE84" rx="3" ry="3" style="stroke:#038048;stroke-width:1.0;"/><text fill="#000000" font-family="sans-serif" font-size="14" lengthAdjust="spacing" textLength="407" x="495" y="958.292">LevelTwo(PApplet parent, int numArrows, Archer archer)</text><ellipse cx="486" cy="971.2422" fill="#84BE84" rx="3" ry="3" style="stroke:#038048;stroke-width:1.0;"/><text fill="#000000" font-family="sans-serif" font-size="14" lengthAdjust="spacing" textLength="117" x="495" y="974.5889">createBalloons()</text><ellipse cx="486" cy="987.5391" fill="#84BE84" rx="3" ry="3" style="stroke:#038048;stroke-width:1.0;"/><text fill="#000000" font-family="sans-serif" font-size="14" lengthAdjust="spacing" textLength="145" x="495" y="990.8857">createRedBalloons()</text><ellipse cx="486" cy="1003.8359" fill="#84BE84" rx="3" ry="3" style="stroke:#038048;stroke-width:1.0;"/><text fill="#000000" font-family="sans-serif" font-size="14" lengthAdjust="spacing" textLength="163" x="495" y="1007.1826">createYellowBalloons()</text><ellipse cx="486" cy="1020.1328" fill="#84BE84" rx="3" ry="3" style="stroke:#038048;stroke-width:1.0;"/><text fill="#000000" font-family="sans-serif" font-size="14" lengthAdjust="spacing" textLength="106" x="495" y="1023.4795">createArrows()</text><ellipse cx="486" cy="1036.4297" fill="#84BE84" rx="3" ry="3" style="stroke:#038048;stroke-width:1.0;"/><text fill="#000000" font-family="sans-serif" font-size="14" lengthAdjust="spacing" textLength="61" x="495" y="1039.7764">update()</text><ellipse cx="486" cy="1052.7266" fill="#84BE84" rx="3" ry="3" style="stroke:#038048;stroke-width:1.0;"/><text fill="#000000" font-family="sans-serif" font-size="14" lengthAdjust="spacing" textLength="60" x="495" y="1056.0732">display()</text><ellipse cx="486" cy="1069.0234" fill="#84BE84" rx="3" ry="3" style="stroke:#038048;stroke-width:1.0;"/><text fill="#000000" font-family="sans-serif" font-size="14" lengthAdjust="spacing" textLength="169" x="495" y="1072.3701">isCompleted(): boolean</text><ellipse cx="486" cy="1085.3203" fill="#84BE84" rx="3" ry="3" style="stroke:#038048;stroke-width:1.0;"/><text fill="#000000" font-family="sans-serif" font-size="14" lengthAdjust="spacing" textLength="243" x="495" y="1088.667">getBalloons(): ArrayList&lt;Balloon&gt;</text><ellipse cx="486" cy="1101.6172" fill="#84BE84" rx="3" ry="3" style="stroke:#038048;stroke-width:1.0;"/><text fill="#000000" font-family="sans-serif" font-size="14" lengthAdjust="spacing" textLength="221" x="495" y="1104.9639">getArrows(): ArrayList&lt;Arrow&gt;</text></g><!--class Arrow--><g id="elem_Arrow"><rect codeLine="69" fill="#F1F1F1" height="227.2656" id="Arrow" rx="2.5" ry="2.5" style="stroke:#181818;stroke-width:0.5;" width="298" x="943.5" y="885"/><ellipse cx="1067.25" cy="901" fill="#ADD1B2" rx="11" ry="11" style="stroke:#181818;stroke-width:1.0;"/><path d="M1069.5938,896.6719 C1068.6563,896.2344 1068.0625,896.0938 1067.1875,896.0938 C1064.5625,896.0938 1062.5625,898.1719 1062.5625,900.8906 L1062.5625,902.0156 C1062.5625,904.5938 1064.6719,906.4844 1067.5625,906.4844 C1068.7813,906.4844 1069.9375,906.1875 1070.6875,905.6406 C1071.2656,905.2344 1071.5938,904.7813 1071.5938,904.3906 C1071.5938,903.9375 1071.2031,903.5469 1070.7344,903.5469 C1070.5156,903.5469 1070.3125,903.625 1070.125,903.8125 C1069.6719,904.2969 1069.6719,904.2969 1069.4844,904.3906 C1069.0625,904.6563 1068.375,904.7813 1067.6094,904.7813 C1065.5625,904.7813 1064.2656,903.6875 1064.2656,901.9844 L1064.2656,900.8906 C1064.2656,899.1094 1065.5156,897.7969 1067.25,897.7969 C1067.8281,897.7969 1068.4375,897.9531 1068.9063,898.2031 C1069.3906,898.4844 1069.5625,898.7031 1069.6563,899.1094 C1069.7188,899.5156 1069.75,899.6406 1069.8906,899.7656 C1070.0313,899.9063 1070.2656,900.0156 1070.4844,900.0156 C1070.75,900.0156 1071.0156,899.875 1071.1875,899.6563 C1071.2969,899.5 1071.3281,899.3125 1071.3281,898.8906 L1071.3281,897.4688 C1071.3281,897.0313 1071.3125,896.9063 1071.2188,896.75 C1071.0625,896.4844 1070.7813,896.3438 1070.4844,896.3438 C1070.1875,896.3438 1069.9844,896.4375 1069.7656,896.75 L1069.5938,896.6719 Z " fill="#000000"/><text fill="#000000" font-family="sans-serif" font-size="14" lengthAdjust="spacing" textLength="42" x="1087.75" y="905.8467">Arrow</text><line style="stroke:#181818;stroke-width:0.5;" x1="944.5" x2="1240.5" y1="917" y2="917"/><rect fill="none" height="6" style="stroke:#C82930;stroke-width:1.0;" width="6" x="951.5" y="927.6484"/><text fill="#000000" font-family="sans-serif" font-size="14" lengthAdjust="spacing" textLength="51" x="963.5" y="933.9951">x: float</text><rect fill="none" height="6" style="stroke:#C82930;stroke-width:1.0;" width="6" x="951.5" y="943.9453"/><text fill="#000000" font-family="sans-serif" font-size="14" lengthAdjust="spacing" textLength="51" x="963.5" y="950.292">y: float</text><rect fill="none" height="6" style="stroke:#C82930;stroke-width:1.0;" width="6" x="951.5" y="960.2422"/><text fill="#000000" font-family="sans-serif" font-size="14" lengthAdjust="spacing" textLength="87" x="963.5" y="966.5889">speed: float</text><rect fill="none" height="6" style="stroke:#C82930;stroke-width:1.0;" width="6" x="951.5" y="976.5391"/><text fill="#000000" font-family="sans-serif" font-size="14" lengthAdjust="spacing" textLength="117" x="963.5" y="982.8857">parent: PApplet</text><line style="stroke:#181818;stroke-width:0.5;" x1="944.5" x2="1240.5" y1="990.1875" y2="990.1875"/><ellipse cx="954.5" cy="1003.8359" fill="#84BE84" rx="3" ry="3" style="stroke:#038048;stroke-width:1.0;"/><text fill="#000000" font-family="sans-serif" font-size="14" lengthAdjust="spacing" textLength="272" x="963.5" y="1007.1826">Arrow(float x, float y, PApplet parent)</text><ellipse cx="954.5" cy="1020.1328" fill="#84BE84" rx="3" ry="3" style="stroke:#038048;stroke-width:1.0;"/><text fill="#000000" font-family="sans-serif" font-size="14" lengthAdjust="spacing" textLength="264" x="963.5" y="1023.4795">update(ArrayList&lt;Balloon&gt; balloons)</text><ellipse cx="954.5" cy="1036.4297" fill="#84BE84" rx="3" ry="3" style="stroke:#038048;stroke-width:1.0;"/><text fill="#000000" font-family="sans-serif" font-size="14" lengthAdjust="spacing" textLength="60" x="963.5" y="1039.7764">display()</text><ellipse cx="954.5" cy="1052.7266" fill="#84BE84" rx="3" ry="3" style="stroke:#038048;stroke-width:1.0;"/><text fill="#000000" font-family="sans-serif" font-size="14" lengthAdjust="spacing" textLength="159" x="963.5" y="1056.0732">isOffscreen(): boolean</text><ellipse cx="954.5" cy="1069.0234" fill="#84BE84" rx="3" ry="3" style="stroke:#038048;stroke-width:1.0;"/><text fill="#000000" font-family="sans-serif" font-size="14" lengthAdjust="spacing" textLength="214" x="963.5" y="1072.3701">hits(Balloon balloon): boolean</text><ellipse cx="954.5" cy="1085.3203" fill="#84BE84" rx="3" ry="3" style="stroke:#038048;stroke-width:1.0;"/><text fill="#000000" font-family="sans-serif" font-size="14" lengthAdjust="spacing" textLength="87" x="963.5" y="1088.667">getY(): float</text><ellipse cx="954.5" cy="1101.6172" fill="#84BE84" rx="3" ry="3" style="stroke:#038048;stroke-width:1.0;"/><text fill="#000000" font-family="sans-serif" font-size="14" lengthAdjust="spacing" textLength="88" x="963.5" y="1104.9639">getX(): float</text></g><!--class Balloon--><g id="elem_Balloon"><rect codeLine="83" fill="#F1F1F1" height="194.6719" id="Balloon" rx="2.5" ry="2.5" style="stroke:#181818;stroke-width:0.5;" width="467" x="1277" y="901"/><ellipse cx="1479.25" cy="917" fill="#A9DCDF" rx="11" ry="11" style="stroke:#181818;stroke-width:1.0;"/><path d="M1481.3281,918.8125 L1481.7188,919.7969 L1481.3281,919.7969 C1480.875,919.7969 1480.7656,919.8125 1480.6094,919.9219 C1480.3594,920.0781 1480.2031,920.3594 1480.2031,920.6563 C1480.2031,920.9219 1480.3438,921.1719 1480.5625,921.3281 C1480.7031,921.4531 1480.9063,921.5 1481.3281,921.5 L1483.6875,921.5 C1484.0469,921.5 1484.2656,921.4688 1484.4063,921.375 C1484.6563,921.2344 1484.8125,920.9375 1484.8125,920.6563 C1484.8125,920.375 1484.6719,920.125 1484.4531,919.9688 C1484.2813,919.8281 1484.125,919.7969 1483.6563,919.7969 L1480.2656,911.5938 L1476.5938,911.5938 C1476.1406,911.5938 1476.0156,911.6094 1475.8594,911.7031 C1475.6094,911.875 1475.4531,912.1563 1475.4531,912.4375 C1475.4531,912.7188 1475.5938,912.9688 1475.8125,913.1406 C1475.9844,913.25 1476.1563,913.2813 1476.5938,913.2813 L1477.6719,913.2813 L1475.0313,919.7969 C1474.6094,919.7969 1474.4531,919.8125 1474.2969,919.9219 C1474.0469,920.0781 1473.8906,920.3594 1473.8906,920.6563 C1473.8906,921.2188 1474.2656,921.5 1475.0156,921.5 L1477.2813,921.5 C1477.6406,921.5 1477.8594,921.4688 1477.9844,921.375 C1478.25,921.2344 1478.3906,920.9375 1478.3906,920.6563 C1478.3906,920.375 1478.2656,920.125 1478.0469,919.9531 C1477.875,919.8281 1477.7344,919.7969 1477.2813,919.7969 L1476.8906,919.7969 L1477.2813,918.8125 L1481.3281,918.8125 Z M1480.625,917.1094 L1477.9531,917.1094 L1479.2969,913.8438 L1480.625,917.1094 Z " fill="#000000"/><text fill="#000000" font-family="sans-serif" font-size="14" font-style="italic" lengthAdjust="spacing" textLength="54" x="1499.75" y="921.8467">Balloon</text><line style="stroke:#181818;stroke-width:0.5;" x1="1278" x2="1743" y1="933" y2="933"/><rect fill="none" height="6" style="stroke:#C82930;stroke-width:1.0;" width="6" x="1285" y="943.6484"/><text fill="#000000" font-family="sans-serif" font-size="14" lengthAdjust="spacing" textLength="51" x="1297" y="949.9951">x: float</text><rect fill="none" height="6" style="stroke:#C82930;stroke-width:1.0;" width="6" x="1285" y="959.9453"/><text fill="#000000" font-family="sans-serif" font-size="14" lengthAdjust="spacing" textLength="51" x="1297" y="966.292">y: float</text><rect fill="none" height="6" style="stroke:#C82930;stroke-width:1.0;" width="6" x="1285" y="976.2422"/><text fill="#000000" font-family="sans-serif" font-size="14" lengthAdjust="spacing" textLength="87" x="1297" y="982.5889">speed: float</text><rect fill="none" height="6" style="stroke:#C82930;stroke-width:1.0;" width="6" x="1285" y="992.5391"/><text fill="#000000" font-family="sans-serif" font-size="14" lengthAdjust="spacing" textLength="65" x="1297" y="998.8857">color: int</text><rect fill="none" height="6" style="stroke:#C82930;stroke-width:1.0;" width="6" x="1285" y="1008.8359"/><text fill="#000000" font-family="sans-serif" font-size="14" lengthAdjust="spacing" textLength="117" x="1297" y="1015.1826">parent: PApplet</text><line style="stroke:#181818;stroke-width:0.5;" x1="1278" x2="1743" y1="1022.4844" y2="1022.4844"/><ellipse cx="1288" cy="1036.1328" fill="#84BE84" rx="3" ry="3" style="stroke:#038048;stroke-width:1.0;"/><text fill="#000000" font-family="sans-serif" font-size="14" lengthAdjust="spacing" textLength="441" x="1297" y="1039.4795">Balloon(float x, float y, float speed, int color, PApplet parent)</text><ellipse cx="1288" cy="1052.4297" fill="#84BE84" rx="3" ry="3" style="stroke:#038048;stroke-width:1.0;"/><text fill="#000000" font-family="sans-serif" font-size="14" lengthAdjust="spacing" textLength="61" x="1297" y="1055.7764">update()</text><ellipse cx="1288" cy="1068.7266" fill="#84BE84" rx="3" ry="3" style="stroke:#038048;stroke-width:1.0;"/><text fill="#000000" font-family="sans-serif" font-size="14" lengthAdjust="spacing" textLength="60" x="1297" y="1072.0732">display()</text><ellipse cx="1288" cy="1085.0234" fill="#84BE84" rx="3" ry="3" style="stroke:#038048;stroke-width:1.0;"/><text fill="#000000" font-family="sans-serif" font-size="14" lengthAdjust="spacing" textLength="266" x="1297" y="1088.3701">checkCollision(Arrow arrow): boolean</text></g><!--class RedBalloon--><g id="elem_RedBalloon"><rect codeLine="95" fill="#F1F1F1" height="80.5938" id="RedBalloon" rx="2.5" ry="2.5" style="stroke:#181818;stroke-width:0.5;" width="495" x="959" y="1180"/><ellipse cx="1161.75" cy="1196" fill="#ADD1B2" rx="11" ry="11" style="stroke:#181818;stroke-width:1.0;"/><path d="M1164.0938,1191.6719 C1163.1563,1191.2344 1162.5625,1191.0938 1161.6875,1191.0938 C1159.0625,1191.0938 1157.0625,1193.1719 1157.0625,1195.8906 L1157.0625,1197.0156 C1157.0625,1199.5938 1159.1719,1201.4844 1162.0625,1201.4844 C1163.2813,1201.4844 1164.4375,1201.1875 1165.1875,1200.6406 C1165.7656,1200.2344 1166.0938,1199.7813 1166.0938,1199.3906 C1166.0938,1198.9375 1165.7031,1198.5469 1165.2344,1198.5469 C1165.0156,1198.5469 1164.8125,1198.625 1164.625,1198.8125 C1164.1719,1199.2969 1164.1719,1199.2969 1163.9844,1199.3906 C1163.5625,1199.6563 1162.875,1199.7813 1162.1094,1199.7813 C1160.0625,1199.7813 1158.7656,1198.6875 1158.7656,1196.9844 L1158.7656,1195.8906 C1158.7656,1194.1094 1160.0156,1192.7969 1161.75,1192.7969 C1162.3281,1192.7969 1162.9375,1192.9531 1163.4063,1193.2031 C1163.8906,1193.4844 1164.0625,1193.7031 1164.1563,1194.1094 C1164.2188,1194.5156 1164.25,1194.6406 1164.3906,1194.7656 C1164.5313,1194.9063 1164.7656,1195.0156 1164.9844,1195.0156 C1165.25,1195.0156 1165.5156,1194.875 1165.6875,1194.6563 C1165.7969,1194.5 1165.8281,1194.3125 1165.8281,1193.8906 L1165.8281,1192.4688 C1165.8281,1192.0313 1165.8125,1191.9063 1165.7188,1191.75 C1165.5625,1191.4844 1165.2813,1191.3438 1164.9844,1191.3438 C1164.6875,1191.3438 1164.4844,1191.4375 1164.2656,1191.75 L1164.0938,1191.6719 Z " fill="#000000"/><text fill="#000000" font-family="sans-serif" font-size="14" lengthAdjust="spacing" textLength="81" x="1182.25" y="1200.8467">RedBalloon</text><line style="stroke:#181818;stroke-width:0.5;" x1="960" x2="1453" y1="1212" y2="1212"/><line style="stroke:#181818;stroke-width:0.5;" x1="960" x2="1453" y1="1220" y2="1220"/><ellipse cx="970" cy="1233.6484" fill="#84BE84" rx="3" ry="3" style="stroke:#038048;stroke-width:1.0;"/><text fill="#000000" font-family="sans-serif" font-size="14" lengthAdjust="spacing" textLength="469" x="979" y="1236.9951">RedBalloon(float x, float y, float speed, int color, PApplet parent)</text><ellipse cx="970" cy="1249.9453" fill="#84BE84" rx="3" ry="3" style="stroke:#038048;stroke-width:1.0;"/><text fill="#000000" font-family="sans-serif" font-size="14" lengthAdjust="spacing" textLength="61" x="979" y="1253.292">update()</text></g><!--class YellowBalloon--><g id="elem_YellowBalloon"><rect codeLine="100" fill="#F1F1F1" height="96.8906" id="YellowBalloon" rx="2.5" ry="2.5" style="stroke:#181818;stroke-width:0.5;" width="648" x="1489.5" y="1172"/><ellipse cx="1759.75" cy="1188" fill="#ADD1B2" rx="11" ry="11" style="stroke:#181818;stroke-width:1.0;"/><path d="M1762.0938,1183.6719 C1761.1563,1183.2344 1760.5625,1183.0938 1759.6875,1183.0938 C1757.0625,1183.0938 1755.0625,1185.1719 1755.0625,1187.8906 L1755.0625,1189.0156 C1755.0625,1191.5938 1757.1719,1193.4844 1760.0625,1193.4844 C1761.2813,1193.4844 1762.4375,1193.1875 1763.1875,1192.6406 C1763.7656,1192.2344 1764.0938,1191.7813 1764.0938,1191.3906 C1764.0938,1190.9375 1763.7031,1190.5469 1763.2344,1190.5469 C1763.0156,1190.5469 1762.8125,1190.625 1762.625,1190.8125 C1762.1719,1191.2969 1762.1719,1191.2969 1761.9844,1191.3906 C1761.5625,1191.6563 1760.875,1191.7813 1760.1094,1191.7813 C1758.0625,1191.7813 1756.7656,1190.6875 1756.7656,1188.9844 L1756.7656,1187.8906 C1756.7656,1186.1094 1758.0156,1184.7969 1759.75,1184.7969 C1760.3281,1184.7969 1760.9375,1184.9531 1761.4063,1185.2031 C1761.8906,1185.4844 1762.0625,1185.7031 1762.1563,1186.1094 C1762.2188,1186.5156 1762.25,1186.6406 1762.3906,1186.7656 C1762.5313,1186.9063 1762.7656,1187.0156 1762.9844,1187.0156 C1763.25,1187.0156 1763.5156,1186.875 1763.6875,1186.6563 C1763.7969,1186.5 1763.8281,1186.3125 1763.8281,1185.8906 L1763.8281,1184.4688 C1763.8281,1184.0313 1763.8125,1183.9063 1763.7188,1183.75 C1763.5625,1183.4844 1763.2813,1183.3438 1762.9844,1183.3438 C1762.6875,1183.3438 1762.4844,1183.4375 1762.2656,1183.75 L1762.0938,1183.6719 Z " fill="#000000"/><text fill="#000000" font-family="sans-serif" font-size="14" lengthAdjust="spacing" textLength="99" x="1780.25" y="1192.8467">YellowBalloon</text><line style="stroke:#181818;stroke-width:0.5;" x1="1490.5" x2="2136.5" y1="1204" y2="1204"/><rect fill="none" height="6" style="stroke:#C82930;stroke-width:1.0;" width="6" x="1497.5" y="1214.6484"/><text fill="#000000" font-family="sans-serif" font-size="14" lengthAdjust="spacing" textLength="132" x="1509.5" y="1220.9951">acceleration: float</text><line style="stroke:#181818;stroke-width:0.5;" x1="1490.5" x2="2136.5" y1="1228.2969" y2="1228.2969"/><ellipse cx="1500.5" cy="1241.9453" fill="#84BE84" rx="3" ry="3" style="stroke:#038048;stroke-width:1.0;"/><text fill="#000000" font-family="sans-serif" font-size="14" lengthAdjust="spacing" textLength="622" x="1509.5" y="1245.292">YellowBalloon(float x, float y, float speed, float acceleration, int color, PApplet parent)</text><ellipse cx="1500.5" cy="1258.2422" fill="#84BE84" rx="3" ry="3" style="stroke:#038048;stroke-width:1.0;"/><text fill="#000000" font-family="sans-serif" font-size="14" lengthAdjust="spacing" textLength="61" x="1509.5" y="1261.5889">update()</text></g><!--class Archer--><g id="elem_Archer"><rect codeLine="106" fill="#F1F1F1" height="178.375" id="Archer" rx="2.5" ry="2.5" style="stroke:#181818;stroke-width:0.5;" width="304" x="1128.5" y="614"/><ellipse cx="1252.25" cy="630" fill="#ADD1B2" rx="11" ry="11" style="stroke:#181818;stroke-width:1.0;"/><path d="M1254.5938,625.6719 C1253.6563,625.2344 1253.0625,625.0938 1252.1875,625.0938 C1249.5625,625.0938 1247.5625,627.1719 1247.5625,629.8906 L1247.5625,631.0156 C1247.5625,633.5938 1249.6719,635.4844 1252.5625,635.4844 C1253.7813,635.4844 1254.9375,635.1875 1255.6875,634.6406 C1256.2656,634.2344 1256.5938,633.7813 1256.5938,633.3906 C1256.5938,632.9375 1256.2031,632.5469 1255.7344,632.5469 C1255.5156,632.5469 1255.3125,632.625 1255.125,632.8125 C1254.6719,633.2969 1254.6719,633.2969 1254.4844,633.3906 C1254.0625,633.6563 1253.375,633.7813 1252.6094,633.7813 C1250.5625,633.7813 1249.2656,632.6875 1249.2656,630.9844 L1249.2656,629.8906 C1249.2656,628.1094 1250.5156,626.7969 1252.25,626.7969 C1252.8281,626.7969 1253.4375,626.9531 1253.9063,627.2031 C1254.3906,627.4844 1254.5625,627.7031 1254.6563,628.1094 C1254.7188,628.5156 1254.75,628.6406 1254.8906,628.7656 C1255.0313,628.9063 1255.2656,629.0156 1255.4844,629.0156 C1255.75,629.0156 1256.0156,628.875 1256.1875,628.6563 C1256.2969,628.5 1256.3281,628.3125 1256.3281,627.8906 L1256.3281,626.4688 C1256.3281,626.0313 1256.3125,625.9063 1256.2188,625.75 C1256.0625,625.4844 1255.7813,625.3438 1255.4844,625.3438 C1255.1875,625.3438 1254.9844,625.4375 1254.7656,625.75 L1254.5938,625.6719 Z " fill="#000000"/><text fill="#000000" font-family="sans-serif" font-size="14" lengthAdjust="spacing" textLength="48" x="1272.75" y="634.8467">Archer</text><line style="stroke:#181818;stroke-width:0.5;" x1="1129.5" x2="1431.5" y1="646" y2="646"/><rect fill="none" height="6" style="stroke:#C82930;stroke-width:1.0;" width="6" x="1136.5" y="656.6484"/><text fill="#000000" font-family="sans-serif" font-size="14" lengthAdjust="spacing" textLength="51" x="1148.5" y="662.9951">x: float</text><rect fill="none" height="6" style="stroke:#C82930;stroke-width:1.0;" width="6" x="1136.5" y="672.9453"/><text fill="#000000" font-family="sans-serif" font-size="14" lengthAdjust="spacing" textLength="51" x="1148.5" y="679.292">y: float</text><rect fill="none" height="6" style="stroke:#C82930;stroke-width:1.0;" width="6" x="1136.5" y="689.2422"/><text fill="#000000" font-family="sans-serif" font-size="14" lengthAdjust="spacing" textLength="117" x="1148.5" y="695.5889">parent: PApplet</text><line style="stroke:#181818;stroke-width:0.5;" x1="1129.5" x2="1431.5" y1="702.8906" y2="702.8906"/><ellipse cx="1139.5" cy="716.5391" fill="#84BE84" rx="3" ry="3" style="stroke:#038048;stroke-width:1.0;"/><text fill="#000000" font-family="sans-serif" font-size="14" lengthAdjust="spacing" textLength="278" x="1148.5" y="719.8857">Archer(float x, float y, PApplet parent)</text><ellipse cx="1139.5" cy="732.8359" fill="#84BE84" rx="3" ry="3" style="stroke:#038048;stroke-width:1.0;"/><text fill="#000000" font-family="sans-serif" font-size="14" lengthAdjust="spacing" textLength="88" x="1148.5" y="736.1826">getX(): float</text><ellipse cx="1139.5" cy="749.1328" fill="#84BE84" rx="3" ry="3" style="stroke:#038048;stroke-width:1.0;"/><text fill="#000000" font-family="sans-serif" font-size="14" lengthAdjust="spacing" textLength="87" x="1148.5" y="752.4795">getY(): float</text><ellipse cx="1139.5" cy="765.4297" fill="#84BE84" rx="3" ry="3" style="stroke:#038048;stroke-width:1.0;"/><text fill="#000000" font-family="sans-serif" font-size="14" lengthAdjust="spacing" textLength="172" x="1148.5" y="768.7764">display(PApplet parent)</text><ellipse cx="1139.5" cy="781.7266" fill="#84BE84" rx="3" ry="3" style="stroke:#038048;stroke-width:1.0;"/><text fill="#000000" font-family="sans-serif" font-size="14" lengthAdjust="spacing" textLength="230" x="1148.5" y="785.0732">mouseDragged(PApplet parent)</text></g><!--link Main to Manager--><g id="link_Main_Manager"><path codeLine="117" d="M1085.5,169.15 C1085.5,187.83 1085.5,202.3 1085.5,222.84 " fill="none" id="Main-to-Manager" style="stroke:#181818;stroke-width:1.0;"/><polygon fill="#181818" points="1085.5,228.84,1089.5,219.84,1085.5,223.84,1081.5,219.84,1085.5,228.84" style="stroke:#181818;stroke-width:1.0;"/></g><!--link Manager to Level--><g id="link_Manager_Level"><path codeLine="118" d="M998.996,521.362 C987.174,541.227 978.2104,556.2909 966.6814,575.6639 " fill="none" id="Manager-to-Level" style="stroke:#181818;stroke-width:1.0;"/><polygon fill="#181818" points="963.613,580.82,971.653,575.1315,966.17,576.5233,964.7782,571.0403,963.613,580.82" style="stroke:#181818;stroke-width:1.0;"/></g><!--reverse link Level to LevelOne--><g id="link_Level_LevelOne"><path codeLine="119" d="M672.6909,792.5901 C599.3159,822.9301 532.639,851.298 457.5,885 C440.123,892.794 422.108,901.08 404.14,909.482 " fill="none" id="Level-backto-LevelOne" style="stroke:#181818;stroke-width:1.0;"/><polygon fill="none" points="689.325,785.712,670.3982,787.0454,674.9836,798.1348,689.325,785.712" style="stroke:#181818;stroke-width:1.0;"/></g><!--reverse link Level to LevelTwo--><g id="link_Level_LevelTwo"><path codeLine="120" d="M798.8614,839.9465 C785.4104,859.6845 781.661,865.188 768.354,884.717 " fill="none" id="Level-backto-LevelTwo" style="stroke:#181818;stroke-width:1.0;"/><polygon fill="none" points="808.998,825.072,793.9032,836.5676,803.8195,843.3253,808.998,825.072" style="stroke:#181818;stroke-width:1.0;"/></g><!--reverse link Level to Arrow--><g id="link_Level_Arrow"><path codeLine="121" d="M977.8052,830.0224 C991.3222,849.7604 1001.888,865.188 1015.26,884.717 " fill="none" id="Level-backto-Arrow" style="stroke:#181818;stroke-width:1.0;"/><polygon fill="#181818" points="974.415,825.072,976.2,834.7578,977.2401,829.1974,982.8005,830.2375,974.415,825.072" style="stroke:#181818;stroke-width:1.0;"/></g><!--reverse link Level to Balloon--><g id="link_Level_Balloon"><path codeLine="122" d="M1099.0022,818.9867 C1105.0122,821.9477 1105.6,822.191 1111.5,825 C1175.6,855.489 1194.22,857.147 1259.5,885 C1271.58,890.153 1283.96,895.498 1296.44,900.932 " fill="none" id="Level-backto-Balloon" style="stroke:#181818;stroke-width:1.0;"/><polygon fill="#181818" points="1093.62,816.335,1099.9255,823.9007,1098.1052,818.5448,1103.4612,816.7244,1093.62,816.335" style="stroke:#181818;stroke-width:1.0;"/></g><!--reverse link Balloon to RedBalloon--><g id="link_Balloon_RedBalloon"><path codeLine="123" d="M1362.1381,1106.8681 C1321.5181,1136.2651 1293.72,1156.383 1261.4,1179.7667 " fill="none" id="Balloon-backto-RedBalloon" style="stroke:#181818;stroke-width:1.0;"/><polygon fill="none" points="1376.72,1096.315,1358.6204,1102.0074,1365.6557,1111.7287,1376.72,1096.315" style="stroke:#181818;stroke-width:1.0;"/></g><!--reverse link Balloon to YellowBalloon--><g id="link_Balloon_YellowBalloon"><path codeLine="124" d="M1658.4053,1106.891 C1694.4453,1133.06 1717.31,1149.662 1747.82,1171.8115 " fill="none" id="Balloon-backto-YellowBalloon" style="stroke:#181818;stroke-width:1.0;"/><polygon fill="none" points="1643.84,1096.315,1654.88,1111.7461,1661.9306,1102.0359,1643.84,1096.315" style="stroke:#181818;stroke-width:1.0;"/></g><!--link Manager to Archer--><g id="link_Manager_Archer"><path codeLine="125" d="M1172.45,521.362 C1191.34,552.943 1207.6911,580.2682 1224.7611,608.8192 " fill="none" id="Manager-to-Archer" style="stroke:#181818;stroke-width:1.0;"/><polygon fill="#181818" points="1227.84,613.969,1226.6548,604.1917,1225.2742,609.6775,1219.7884,608.297,1227.84,613.969" style="stroke:#181818;stroke-width:1.0;"/></g><!--SRC=[pLPTRzem57tFh_0ZLSWVY2earcbIfKvKOm-hgZwupYL4CtPacmBQzj_dhpXsIGf3F8oNu1FxtEDphwz3A9OIVSKDGxyof7y5sc26Qn2bHkqV2-T8Wb8Dg-NafWUsRHXL0k_2OCEt4Xu5I0bL2duMkAvZK4UUB9NGpCyl28jQtcH_ienuMLP0KDPY0KoLw77UjXIKHx4WQoDtRfyUfF06L9RemJoVNpnAji8mMF2ULR0lKSCw7acuW1Z0Gl2T_D88g7euxrHDl0glgjlGjgsmWjwMHhOK7_nOArW3-MdZt_6DMTvm5bxMU0EBDqtT0IiTUsvK1CJpBOtMVx9RcufVfHAOAEJSjIfEUCks6njVnhwyOaevPz9OBl3XeP7gzfF3PebryGHBCnjFMUxql7DrQiBsAgP-XISuo_CSrQ2yF5syewBjF1ScdHKfpr4ZVTwCgILwvPm2PlvbdAvGn7PR2mRUwJm05ssL2D1RxRUJm9tw_yQMr8JlEnxApTVGiiL47_qIhIZ7AZP8Jxw-GT-W6ddp11hUNSNN3qlaEgO7N-qucBgFVIpG8HtA5amZYw6XGvyxqecTX_PJjm0TfkZ3XdUyaz0dnerQh5PIMmpisAXre-J4KtLCGsu-cQLnzMZiHuyTjxsEysBJ2ATSnFrms4KVPy17zySokvgsZ2Vy7JFHNYXtdD96cgl45OHjlqFdi3y0eHtrqFMaXdZ9iGgMOqA0Wi3cyakJbym_fSSDOhABDFesSbuzZ9qOGt7saKbBTBoKkrmFioGN_FifUdVsewuePk4xhlkSCfZjiPdx1BZzNHJXLZh2T2FkC0tP-eh6FbLPbsAxhY-f54-ocyXn1lu5]--></g></svg>